<svg xmlns="http://www.w3.org/2000/svg" version="1.1" xmlns:xlink="http://www.w3.org/1999/xlink" xmlns:svgjs="http://svgjs.dev/svgjs" viewBox="0 0 1422 800" opacity="0.71"><defs><linearGradient x1="50%" y1="0%" x2="50%" y2="100%" id="oooscillate-grad"><stop stop-color="#6e53f5" stop-opacity="1" offset="0%"></stop><stop stop-color="#6363da" stop-opacity="1" offset="100%"></stop></linearGradient></defs><g stroke-width="2.5" stroke="url(#oooscillate-grad)" fill="none" stroke-linecap="round"><path d="M 0 459 Q 355.5 20 711 400 Q 1066.5 780 1422 459" opacity="1.00"></path><path d="M 0 442 Q 355.5 20 711 400 Q 1066.5 780 1422 442" opacity="0.96"></path><path d="M 0 425 Q 355.5 20 711 400 Q 1066.5 780 1422 425" opacity="0.93"></path><path d="M 0 408 Q 355.5 20 711 400 Q 1066.5 780 1422 408" opacity="0.89"></path><path d="M 0 391 Q 355.5 20 711 400 Q 1066.5 780 1422 391" opacity="0.85"></path><path d="M 0 374 Q 355.5 20 711 400 Q 1066.5 780 1422 374" opacity="0.82"></path><path d="M 0 357 Q 355.5 20 711 400 Q 1066.5 780 1422 357" opacity="0.78"></path><path d="M 0 340 Q 355.5 20 711 400 Q 1066.5 780 1422 340" opacity="0.74"></path><path d="M 0 323 Q 355.5 20 711 400 Q 1066.5 780 1422 323" opacity="0.71"></path><path d="M 0 306 Q 355.5 20 711 400 Q 1066.5 780 1422 306" opacity="0.67"></path><path d="M 0 289 Q 355.5 20 711 400 Q 1066.5 780 1422 289" opacity="0.63"></path><path d="M 0 272 Q 355.5 20 711 400 Q 1066.5 780 1422 272" opacity="0.60"></path><path d="M 0 255 Q 355.5 20 711 400 Q 1066.5 780 1422 255" opacity="0.56"></path><path d="M 0 238 Q 355.5 20 711 400 Q 1066.5 780 1422 238" opacity="0.53"></path><path d="M 0 221 Q 355.5 20 711 400 Q 1066.5 780 1422 221" opacity="0.49"></path><path d="M 0 204 Q 355.5 20 711 400 Q 1066.5 780 1422 204" opacity="0.45"></path><path d="M 0 187 Q 355.5 20 711 400 Q 1066.5 780 1422 187" opacity="0.42"></path><path d="M 0 170 Q 355.5 20 711 400 Q 1066.5 780 1422 170" opacity="0.38"></path><path d="M 0 153 Q 355.5 20 711 400 Q 1066.5 780 1422 153" opacity="0.34"></path><path d="M 0 136 Q 355.5 20 711 400 Q 1066.5 780 1422 136" opacity="0.31"></path><path d="M 0 119 Q 355.5 20 711 400 Q 1066.5 780 1422 119" opacity="0.27"></path><path d="M 0 102 Q 355.5 20 711 400 Q 1066.5 780 1422 102" opacity="0.23"></path><path d="M 0 85 Q 355.5 20 711 400 Q 1066.5 780 1422 85" opacity="0.20"></path><path d="M 0 68 Q 355.5 20 711 400 Q 1066.5 780 1422 68" opacity="0.16"></path><path d="M 0 51 Q 355.5 20 711 400 Q 1066.5 780 1422 51" opacity="0.12"></path><path d="M 0 34 Q 355.5 20 711 400 Q 1066.5 780 1422 34" opacity="0.09"></path></g></svg>