<?xml version="1.0" standalone="no"?>
<svg xmlns:xlink="http://www.w3.org/1999/xlink" id="wave" style="transform:rotate(0deg); transition: 0.3s" viewBox="0 0 1440 220" version="1.1" xmlns="http://www.w3.org/2000/svg"><defs><linearGradient id="sw-gradient-0" x1="0" x2="0" y1="1" y2="0"><stop stop-color="rgba(75, 75, 196, 1)" offset="0%"/><stop stop-color="rgba(111, 83, 244, 1)" offset="100%"/></linearGradient></defs><path style="transform:translate(0, 0px); opacity:1" fill="url(#sw-gradient-0)" d="M0,22L30,18.3C60,15,120,7,180,29.3C240,51,300,103,360,117.3C420,132,480,110,540,88C600,66,660,44,720,62.3C780,81,840,139,900,157.7C960,176,1020,154,1080,135.7C1140,117,1200,103,1260,113.7C1320,125,1380,161,1440,150.3C1500,139,1560,81,1620,62.3C1680,44,1740,66,1800,62.3C1860,59,1920,29,1980,18.3C2040,7,2100,15,2160,25.7C2220,37,2280,51,2340,47.7C2400,44,2460,22,2520,40.3C2580,59,2640,117,2700,150.3C2760,183,2820,191,2880,168.7C2940,147,3000,95,3060,62.3C3120,29,3180,15,3240,25.7C3300,37,3360,73,3420,77C3480,81,3540,51,3600,47.7C3660,44,3720,66,3780,88C3840,110,3900,132,3960,128.3C4020,125,4080,95,4140,69.7C4200,44,4260,22,4290,11L4320,0L4320,220L4290,220C4260,220,4200,220,4140,220C4080,220,4020,220,3960,220C3900,220,3840,220,3780,220C3720,220,3660,220,3600,220C3540,220,3480,220,3420,220C3360,220,3300,220,3240,220C3180,220,3120,220,3060,220C3000,220,2940,220,2880,220C2820,220,2760,220,2700,220C2640,220,2580,220,2520,220C2460,220,2400,220,2340,220C2280,220,2220,220,2160,220C2100,220,2040,220,1980,220C1920,220,1860,220,1800,220C1740,220,1680,220,1620,220C1560,220,1500,220,1440,220C1380,220,1320,220,1260,220C1200,220,1140,220,1080,220C1020,220,960,220,900,220C840,220,780,220,720,220C660,220,600,220,540,220C480,220,420,220,360,220C300,220,240,220,180,220C120,220,60,220,30,220L0,220Z"/><defs><linearGradient id="sw-gradient-1" x1="0" x2="0" y1="1" y2="0"><stop stop-color="rgba(111, 83, 244, 1)" offset="0%"/><stop stop-color="rgba(75.344, 47.52, 207.508, 1)" offset="100%"/></linearGradient></defs><path style="transform:translate(0, 50px); opacity:0.9" fill="url(#sw-gradient-1)" d="M0,110L30,102.7C60,95,120,81,180,73.3C240,66,300,66,360,58.7C420,51,480,37,540,44C600,51,660,81,720,95.3C780,110,840,110,900,110C960,110,1020,110,1080,113.7C1140,117,1200,125,1260,139.3C1320,154,1380,176,1440,179.7C1500,183,1560,169,1620,154C1680,139,1740,125,1800,99C1860,73,1920,37,1980,33C2040,29,2100,59,2160,58.7C2220,59,2280,29,2340,33C2400,37,2460,73,2520,102.7C2580,132,2640,154,2700,139.3C2760,125,2820,73,2880,69.7C2940,66,3000,110,3060,110C3120,110,3180,66,3240,73.3C3300,81,3360,139,3420,139.3C3480,139,3540,81,3600,58.7C3660,37,3720,51,3780,51.3C3840,51,3900,37,3960,25.7C4020,15,4080,7,4140,3.7C4200,0,4260,0,4290,0L4320,0L4320,220L4290,220C4260,220,4200,220,4140,220C4080,220,4020,220,3960,220C3900,220,3840,220,3780,220C3720,220,3660,220,3600,220C3540,220,3480,220,3420,220C3360,220,3300,220,3240,220C3180,220,3120,220,3060,220C3000,220,2940,220,2880,220C2820,220,2760,220,2700,220C2640,220,2580,220,2520,220C2460,220,2400,220,2340,220C2280,220,2220,220,2160,220C2100,220,2040,220,1980,220C1920,220,1860,220,1800,220C1740,220,1680,220,1620,220C1560,220,1500,220,1440,220C1380,220,1320,220,1260,220C1200,220,1140,220,1080,220C1020,220,960,220,900,220C840,220,780,220,720,220C660,220,600,220,540,220C480,220,420,220,360,220C300,220,240,220,180,220C120,220,60,220,30,220L0,220Z"/></svg>