<?xml version="1.0" standalone="no"?>
<svg xmlns:xlink="http://www.w3.org/1999/xlink" id="wave" style="transform:rotate(0deg); transition: 0.3s" viewBox="0 0 1440 350" version="1.1" xmlns="http://www.w3.org/2000/svg"><defs><linearGradient id="sw-gradient-0" x1="0" x2="0" y1="1" y2="0"><stop stop-color="rgba(75, 75, 196, 1)" offset="0%"/><stop stop-color="rgba(111, 83, 244, 1)" offset="100%"/></linearGradient></defs><path style="transform:translate(0, 0px); opacity:1" fill="url(#sw-gradient-0)" d="M0,35L24,29.2C48,23,96,12,144,46.7C192,82,240,163,288,186.7C336,210,384,175,432,140C480,105,528,70,576,99.2C624,128,672,222,720,250.8C768,280,816,245,864,215.8C912,187,960,163,1008,180.8C1056,198,1104,257,1152,239.2C1200,222,1248,128,1296,99.2C1344,70,1392,105,1440,99.2C1488,93,1536,47,1584,29.2C1632,12,1680,23,1728,40.8C1776,58,1824,82,1872,75.8C1920,70,1968,35,2016,64.2C2064,93,2112,187,2160,239.2C2208,292,2256,303,2304,268.3C2352,233,2400,152,2448,99.2C2496,47,2544,23,2592,40.8C2640,58,2688,117,2736,122.5C2784,128,2832,82,2880,75.8C2928,70,2976,105,3024,140C3072,175,3120,210,3168,204.2C3216,198,3264,152,3312,110.8C3360,70,3408,35,3432,17.5L3456,0L3456,350L3432,350C3408,350,3360,350,3312,350C3264,350,3216,350,3168,350C3120,350,3072,350,3024,350C2976,350,2928,350,2880,350C2832,350,2784,350,2736,350C2688,350,2640,350,2592,350C2544,350,2496,350,2448,350C2400,350,2352,350,2304,350C2256,350,2208,350,2160,350C2112,350,2064,350,2016,350C1968,350,1920,350,1872,350C1824,350,1776,350,1728,350C1680,350,1632,350,1584,350C1536,350,1488,350,1440,350C1392,350,1344,350,1296,350C1248,350,1200,350,1152,350C1104,350,1056,350,1008,350C960,350,912,350,864,350C816,350,768,350,720,350C672,350,624,350,576,350C528,350,480,350,432,350C384,350,336,350,288,350C240,350,192,350,144,350C96,350,48,350,24,350L0,350Z"/><defs><linearGradient id="sw-gradient-1" x1="0" x2="0" y1="1" y2="0"><stop stop-color="rgba(111, 83, 244, 1)" offset="0%"/><stop stop-color="rgba(75.344, 47.52, 207.508, 1)" offset="100%"/></linearGradient></defs><path style="transform:translate(0, 50px); opacity:0.9" fill="url(#sw-gradient-1)" d="M0,175L24,163.3C48,152,96,128,144,116.7C192,105,240,105,288,93.3C336,82,384,58,432,70C480,82,528,128,576,151.7C624,175,672,175,720,175C768,175,816,175,864,180.8C912,187,960,198,1008,221.7C1056,245,1104,280,1152,285.8C1200,292,1248,268,1296,245C1344,222,1392,198,1440,157.5C1488,117,1536,58,1584,52.5C1632,47,1680,93,1728,93.3C1776,93,1824,47,1872,52.5C1920,58,1968,117,2016,163.3C2064,210,2112,245,2160,221.7C2208,198,2256,117,2304,110.8C2352,105,2400,175,2448,175C2496,175,2544,105,2592,116.7C2640,128,2688,222,2736,221.7C2784,222,2832,128,2880,93.3C2928,58,2976,82,3024,81.7C3072,82,3120,58,3168,40.8C3216,23,3264,12,3312,5.8C3360,0,3408,0,3432,0L3456,0L3456,350L3432,350C3408,350,3360,350,3312,350C3264,350,3216,350,3168,350C3120,350,3072,350,3024,350C2976,350,2928,350,2880,350C2832,350,2784,350,2736,350C2688,350,2640,350,2592,350C2544,350,2496,350,2448,350C2400,350,2352,350,2304,350C2256,350,2208,350,2160,350C2112,350,2064,350,2016,350C1968,350,1920,350,1872,350C1824,350,1776,350,1728,350C1680,350,1632,350,1584,350C1536,350,1488,350,1440,350C1392,350,1344,350,1296,350C1248,350,1200,350,1152,350C1104,350,1056,350,1008,350C960,350,912,350,864,350C816,350,768,350,720,350C672,350,624,350,576,350C528,350,480,350,432,350C384,350,336,350,288,350C240,350,192,350,144,350C96,350,48,350,24,350L0,350Z"/></svg>