<svg id="silva-logo" xmlns="http://www.w3.org/2000/svg" viewBox="0 0 387.57 387.57"><defs><style>.cls-1{fill:#4b4bc4;}.cls-2{fill:#6f53f4;}.cls-3{fill:#fff;}</style></defs><title>silva-logo-form-svg</title><g id="form"><circle class="cls-1" cx="186.79" cy="200.78" r="186.79"/><circle class="cls-2" cx="200.78" cy="186.79" r="186.79"/><path class="cls-3" d="M1043.22,591.89q0,29.55-28.31,49.48t-65.68,19.94q-29.19,0-49.31-12.46T879.81,625q5.69-13.89,21.71-29.91t29.55-16.73q8.89,3.92,16.56,19.4a162.44,162.44,0,0,1,12.28,35.78q19.23-.7,19.22-21.71,0-13.89-10.5-34a317.35,317.35,0,0,0-23-37.56,275.24,275.24,0,0,1-23-38.81Q912.2,480.1,912.2,464.08q0-26.34,24.21-43.08a92.76,92.76,0,0,1,53.94-16.73q29.71,0,46.28,12.81t16.56,29.55q0,13.89-5.7,22.25t-9.08,12.82a66.25,66.25,0,0,1-9.08,9.44q-10.68,9.25-16.37,13.52l-5.34,3.92q21,26,31.68,60.52A76.67,76.67,0,0,1,1043.22,591.89ZM1024.7,449.13q0-16.74-21.36-16.74-12.47,0-20.11,5.34t-7.66,13.35q0,8,6.59,19.41t10.5,16q8.55-4.27,20.3-15.67T1024.7,449.13Z" transform="translate(-766.5 -346)"/></g></svg>